# xmcd
# 
# Track frame offsets:
#     150
#     18749
#     33545
#     51375
#     66944
#     86440
#     108605
#     123697
#     142596
#     158419
#     179543
#     197668
# 
# Disc length: 2866
# 
# Revision: 4
# Processed by: cddbd v1.5.2PL0 Copyright (c) Steve Scherf et al.
# Submitted via: fre:ac v1.0.17
# 
DISCID=a60b300c
DTITLE=矢沢永吉 - YOUR SONGS 1
DYEAR=2006
DGENRE=Other
TTITLE0=PURE GOLD
TTITLE1=DON'T WANNA STOP
TTITLE2=夢の彼方
TTITLE3=MARIA
TTITLE4=ニューグランドホテル
TTITLE5=くちづけが止まらない
TTITLE6=青空
TTITLE7=背中ごしのＩ　ＬＯＶＥ　ＹＯＵ
TTITLE8=GET UP
TTITLE9=棕櫚の影に
TTITLE10=都会の風よ
TTITLE11=Ｉ　ＡＭ
EXTD=
EXTT0=
EXTT1=
EXTT2=
EXTT3=
EXTT4=
EXTT5=
EXTT6=
EXTT7=
EXTT8=
EXTT9=
EXTT10=
EXTT11=
PLAYORDER=
